<svg class="rendered-elevation" xmlns="http://www.w3.org/2000/svg" width="736" height="446" viewBox="0 0 736 446"><defs><pattern id="ke_9be67ac7eb91_clad-primary" patternUnits="userSpaceOnUse" width="56" height="28"><rect width="56" height="28" fill="#b7b0a0"/><path d="M0 0H56M0 14H56M0 28H56M22 0V14M44 0V14M10 14V28M37 14V28" stroke="#e0dcd0" stroke-width="1.2"/><path d="M1 2H20V12H1Z M12 16H35V26H12Z" fill="#a29c8e" opacity=".45"/></pattern><pattern id="ke_9be67ac7eb91_clad-accent" patternUnits="userSpaceOnUse" width="10" height="10"><rect width="10" height="10" fill="#aaa599"/></pattern><pattern id="ke_9be67ac7eb91_roof-tex" patternUnits="userSpaceOnUse" width="20" height="40"><rect width="20" height="40" fill="#525e63"/><line x1="10" y1="0" x2="10" y2="40" stroke="#5e4e3e" stroke-width="0.6" opacity="0.3"/></pattern>
    <linearGradient id="ke_9be67ac7eb91_elevation-sky" x2="0" y2="1"><stop stop-color="#c6d5da"/><stop offset=".8" stop-color="#edf0e9"/><stop offset="1" stop-color="#f2ede1"/></linearGradient>
    <linearGradient id="ke_9be67ac7eb91_elevation-glass" x2=".7" y2="1"><stop stop-color="#3e5966"/><stop offset=".43" stop-color="#8ba9b3"/><stop offset=".45" stop-color="#c6d5d6"/><stop offset=".6" stop-color="#728b92"/><stop offset="1" stop-color="#344a53"/></linearGradient>
    <linearGradient id="ke_9be67ac7eb91_elevation-wall-light" x2="1" y2=".15"><stop stop-color="#303b40"/><stop offset=".08" stop-color="#fbf9e9"/><stop offset=".8" stop-color="#fbf9e9"/><stop offset="1" stop-color="#526064"/></linearGradient>
    <linearGradient id="ke_9be67ac7eb91_elevation-timber" x2="1" y2="0"><stop stop-color="#5f4b38"/><stop offset=".45" stop-color="#9c8262"/><stop offset="1" stop-color="#655340"/></linearGradient>
    <linearGradient id="ke_9be67ac7eb91_elevation-panel" x2="0" y2="1"><stop stop-color="#e9e5db"/><stop offset="1" stop-color="#a9aea8"/></linearGradient>
    <filter id="ke_9be67ac7eb91_elevation-wall-shadow" x="-20%" y="-20%" width="140%" height="140%" color-interpolation-filters="sRGB"><feDropShadow dx="3" dy="4" stdDeviation="3" flood-color="#36444a" flood-opacity=".22"/></filter>
    <filter id="ke_9be67ac7eb91_elevation-roof-shadow" x="-20%" y="-20%" width="140%" height="150%" color-interpolation-filters="sRGB"><feDropShadow dx="1" dy="7" stdDeviation="3" flood-color="#2d3739" flood-opacity=".4"/></filter>
    <filter id="ke_9be67ac7eb91_elevation-recess" x="-30%" y="-30%" width="160%" height="160%" color-interpolation-filters="sRGB"><feDropShadow dx="1" dy="2" stdDeviation="1" flood-color="#263638" flood-opacity=".45"/></filter>
    <filter id="ke_9be67ac7eb91_elevation-ground-shadow" x="-30%" y="-200%" width="160%" height="500%"><feGaussianBlur stdDeviation="7"/></filter>
  </defs><g class="elevation-backdrop"><rect width="100%" height="100%" fill="url(#ke_9be67ac7eb91_elevation-sky)"/><rect x="0" y="384" width="736" height="62" fill="#d6d8cc"/><ellipse cx="368" cy="388" rx="303" ry="6" fill="#515f58" opacity=".3" filter="url(#ke_9be67ac7eb91_elevation-ground-shadow)"/></g><text x="80" y="34" font-family="Georgia, serif" font-size="22" fill="#574838">Left Elevation</text><text x="80" y="56" font-family="Arial, sans-serif" font-size="11" letter-spacing="1.8" fill="#7e6d5c">KEYSTONE AI</text><line x1="80" y1="384" x2="656" y2="384" stroke="#574838" stroke-width="2.6"/><rect class="elevation-wall" filter="url(#ke_9be67ac7eb91_elevation-wall-shadow)" x="80" y="222" width="576" height="162" fill="url(#ke_9be67ac7eb91_clad-primary)" stroke="#574838" stroke-width="2"/><rect x="80" y="358" width="576" height="26" fill="url(#ke_9be67ac7eb91_clad-accent)" opacity="0.92"/><rect class="elevation-bay-shading" x="80" y="222" width="216" height="162" fill="url(#ke_9be67ac7eb91_elevation-wall-light)" fill-opacity="0.18" stroke="#5e4e3e" stroke-width="0.9" opacity="0.55"/><rect class="elevation-bay-shading" x="296" y="222" width="216" height="162" fill="url(#ke_9be67ac7eb91_elevation-wall-light)" fill-opacity="0.18" stroke="#5e4e3e" stroke-width="0.9" opacity="0.55"/><rect class="elevation-bay-shading" x="512" y="222" width="72" height="162" fill="url(#ke_9be67ac7eb91_elevation-wall-light)" fill-opacity="0.18" stroke="#5e4e3e" stroke-width="0.9" opacity="0.55"/><rect class="elevation-bay-shading" x="584" y="222" width="72" height="162" fill="url(#ke_9be67ac7eb91_elevation-wall-light)" fill-opacity="0.18" stroke="#5e4e3e" stroke-width="0.9" opacity="0.55"/><rect class="elevation-glazing" filter="url(#ke_9be67ac7eb91_elevation-recess)" x="361.56" y="235.5" width="37.44" height="108" rx="1.5" fill="url(#ke_9be67ac7eb91_elevation-glass)" stroke="#5e4e3e" stroke-width="1.6"/><rect class="elevation-glazing" filter="url(#ke_9be67ac7eb91_elevation-recess)" x="409" y="235.5" width="37.44" height="108" rx="1.5" fill="url(#ke_9be67ac7eb91_elevation-glass)" stroke="#5e4e3e" stroke-width="1.6"/><rect class="elevation-glazing" filter="url(#ke_9be67ac7eb91_elevation-recess)" x="208.56" y="235.5" width="37.44" height="108" rx="1.5" fill="url(#ke_9be67ac7eb91_elevation-glass)" stroke="#5e4e3e" stroke-width="1.6"/><rect class="elevation-glazing" filter="url(#ke_9be67ac7eb91_elevation-recess)" x="256" y="235.5" width="37.44" height="108" rx="1.5" fill="url(#ke_9be67ac7eb91_elevation-glass)" stroke="#5e4e3e" stroke-width="1.6"/><path class="elevation-roof" filter="url(#ke_9be67ac7eb91_elevation-roof-shadow)" d="M 80 204 L 368 78 L 656 204 Z" fill="url(#ke_9be67ac7eb91_roof-tex)" stroke="#574838" stroke-width="2.2"/><line x1="80" y1="410" x2="656" y2="410" stroke="#907f6e" stroke-width="1.1"/><line x1="80" y1="404" x2="80" y2="416" stroke="#907f6e" stroke-width="1.1"/><line x1="656" y1="404" x2="656" y2="416" stroke="#907f6e" stroke-width="1.1"/><text x="368" y="404" font-family="Arial, sans-serif" font-size="11" text-anchor="middle" fill="#7e6d5c">32 ft overall</text></svg>